<svg version="1.1" id="Layer_1" xmlns="http://www.w3.org/2000/svg" xmlns:xlink="http://www.w3.org/1999/xlink" x="0px" y="0px"
	 width="100%" viewBox="0 0 776 942" enable-background="new 0 0 776 942" xml:space="preserve">
<path fill="#E2211C" opacity="1.000000" stroke="none" 
	d="
M777.000000,361.000000 
	C777.000000,555.333252 777.000000,749.166504 777.000000,942.999817 
	C518.333496,942.999878 259.667053,942.999878 1.000425,942.999939 
	C1.000283,629.000305 1.000283,315.000641 1.000142,1.000720 
	C259.666229,1.000480 518.332458,1.000480 776.999390,1.000240 
	C777.000000,120.833336 777.000000,240.666672 777.000000,361.000000 
M611.281372,586.914307 
	C611.478638,586.278320 611.709778,585.650696 611.868286,585.005188 
	C625.008301,531.492493 629.433716,476.954498 629.868469,422.095673 
	C630.390198,356.272888 629.897278,290.442078 629.831238,224.614746 
	C629.829773,223.161774 629.677368,221.708969 629.583862,220.051437 
	C469.185760,220.051437 309.097473,220.051437 148.713516,220.051437 
	C148.630981,221.711899 148.492126,223.182312 148.494278,224.652527 
	C148.595795,294.142334 148.442123,363.633972 148.918396,433.121246 
	C149.222427,477.479004 153.293701,521.556946 162.008469,565.112427 
	C175.665710,633.369934 207.274551,692.207947 255.436035,742.288147 
	C293.469482,781.836792 338.018311,812.471375 386.464691,837.708862 
	C388.115875,838.568970 391.048157,838.405212 392.754486,837.514404 
	C436.062317,814.902710 476.313965,787.912842 511.598083,753.884766 
	C559.735962,707.460205 593.798828,652.606873 611.281372,586.914307 
M571.106873,176.100555 
	C576.337219,178.275864 581.567627,180.451187 586.797974,182.626495 
	C587.143066,182.203415 587.488220,181.780319 587.833313,181.357239 
	C587.084595,180.167969 586.192749,179.042297 585.627869,177.771301 
	C585.077148,176.532028 584.222168,174.914444 584.601868,173.859192 
	C586.923340,167.407974 589.558167,161.069519 592.088562,154.693466 
	C592.323425,154.778046 592.558228,154.862610 592.793091,154.947174 
	C593.685608,165.307724 594.578186,175.668274 595.470703,186.028839 
	C596.013855,186.111923 596.557007,186.195023 597.100159,186.278122 
	C604.660217,179.308136 612.220276,172.338135 619.780334,165.368134 
	C620.204773,165.669312 620.629211,165.970490 621.053650,166.271652 
	C618.407715,172.616989 615.886597,179.020706 612.976196,185.242325 
	C612.557495,186.137436 610.256287,186.132675 608.839966,186.587250 
	C607.907593,186.886490 606.999878,187.262695 606.081116,187.604431 
	C606.655884,188.405807 607.062866,189.641891 607.832336,189.938919 
	C613.350525,192.069031 618.942383,194.008270 625.045288,196.200043 
	C624.851318,194.568451 625.069885,192.781525 624.539429,192.521240 
	C620.435242,190.507614 622.112671,187.712692 623.245422,184.942810 
	C626.323792,177.415512 629.423401,169.896896 632.483948,162.362366 
	C633.540222,159.762070 634.552429,157.401978 638.240295,158.680756 
	C638.875793,158.901138 640.079224,157.483826 641.715088,156.335114 
	C637.967834,154.932205 635.201965,154.205353 632.738403,152.905533 
	C628.541443,150.691132 625.692993,151.761185 622.485535,155.138336 
	C616.602661,161.332489 610.149658,166.985077 604.004333,172.797272 
	C603.394287,172.306595 603.176208,172.217422 603.168396,172.112625 
	C602.713013,165.980637 602.313782,159.844299 601.827087,153.714874 
	C600.811157,140.921570 600.792969,140.921570 588.492554,136.974701 
	C588.183289,136.875458 587.833801,136.901627 585.921387,136.714691 
	C587.791992,139.412323 589.079956,141.269775 590.732056,143.652374 
	C587.715271,151.076904 584.390076,159.025955 581.263428,167.052383 
	C579.650391,171.193466 578.362000,175.403824 572.432739,173.981216 
	C572.122437,173.906769 571.572144,174.832703 571.106873,176.100555 
M145.882629,162.827881 
	C149.039398,170.689865 152.166077,178.564163 155.370102,186.406830 
	C156.417374,188.970291 157.608673,191.323700 153.973541,193.000320 
	C153.295685,193.312943 153.305283,195.116043 152.997620,196.231293 
	C153.374832,196.542847 153.752045,196.854401 154.129257,197.165970 
	C162.957260,193.425354 172.121231,190.306702 180.519241,185.770111 
	C189.007553,181.184769 191.792053,172.398560 189.190720,163.458618 
	C186.342728,153.671021 179.453522,148.145660 169.710342,147.816605 
	C158.034012,147.422287 148.159317,153.181488 137.536987,157.164078 
	C138.728226,158.250366 140.032089,158.553497 141.161057,159.174545 
	C142.714523,160.029129 144.135727,161.124176 145.882629,162.827881 
M337.876190,133.951447 
	C338.051544,136.942047 338.294922,139.930603 338.383942,142.923782 
	C338.481079,146.191025 339.293457,149.857315 334.204865,150.436447 
	C333.624817,150.502457 333.264923,152.502762 332.574738,154.151169 
	C339.163177,153.634247 344.724548,153.197906 352.097229,152.619446 
	C338.873291,145.198151 345.112244,133.715744 342.812164,124.331696 
	C351.840698,132.586136 360.327728,140.983902 368.908386,149.284897 
	C370.240234,150.573349 372.000305,151.419174 374.596161,153.164948 
	C373.657745,140.380188 372.825897,129.274033 372.038269,118.164749 
	C371.830109,115.228951 371.835815,112.458641 375.748352,111.654892 
	C376.571259,111.485847 377.081787,109.796272 378.349609,107.880569 
	C371.355347,108.403427 365.708008,108.825600 360.060638,109.247765 
	C359.670349,109.562775 359.280060,109.877792 358.889740,110.192802 
	C371.594177,115.377502 365.131287,126.082756 367.466095,134.373642 
	C365.577667,133.475784 364.230347,132.330231 362.991333,131.077545 
	C357.016479,125.036903 351.129669,118.907356 345.063782,112.960167 
	C343.887665,111.807076 342.083221,110.734642 340.516235,110.654953 
	C337.060272,110.479179 333.570984,110.959999 329.730957,111.195221 
	C330.266998,112.287941 330.569305,113.787865 331.114990,113.882339 
	C337.969269,115.069153 336.937531,120.355011 337.161591,125.055695 
	C337.288239,127.713631 337.590759,130.363174 337.876190,133.951447 
M548.234985,166.948486 
	C541.236633,164.142319 539.810913,161.492950 541.708313,154.320328 
	C543.364929,148.057770 545.248291,141.855087 546.895386,135.590149 
	C547.613831,132.857559 548.639038,131.087982 551.983643,131.531693 
	C552.956787,131.660797 554.122070,130.341110 555.199280,129.685532 
	C555.039429,129.275970 554.879517,128.866425 554.719666,128.456863 
	C548.227112,126.864899 541.734558,125.272926 534.572205,123.516708 
	C535.016418,125.294121 535.004028,126.794998 535.500610,126.988312 
	C539.777100,128.653061 538.634827,131.735138 537.770325,134.789612 
	C536.050903,140.864594 534.230347,146.912979 532.633423,153.019913 
	C531.441406,157.578171 531.757385,162.150116 535.075684,165.713547 
	C540.632446,171.680847 547.898743,173.140717 555.647034,172.050522 
	C562.293396,171.115356 565.383850,166.197052 567.178406,160.321884 
	C568.924927,154.604050 570.516785,148.838547 572.139771,143.083618 
	C573.010864,139.994690 574.126221,137.430252 578.209045,137.969528 
	C578.956909,138.068314 579.916321,136.565643 581.407227,135.244827 
	C574.955750,133.616852 569.667725,132.282471 563.282166,130.671127 
	C564.130310,132.638306 564.320984,134.419937 565.199707,134.876083 
	C568.263184,136.466354 567.775940,138.739243 567.056335,141.257416 
	C565.276611,147.485474 563.691162,153.775391 561.704529,159.936264 
	C559.581055,166.521576 556.125549,168.322678 548.234985,166.948486 
M206.354477,173.313126 
	C213.672577,177.419189 223.424332,176.556381 230.168625,171.154755 
	C236.873016,165.785080 235.739655,159.011398 233.505508,152.063354 
	C231.828857,146.848984 229.865326,141.701965 228.628143,136.385651 
	C228.233505,134.689789 229.680328,132.515884 230.434784,130.620544 
	C230.894302,129.466141 231.640732,128.425934 232.258301,127.334442 
	C231.898499,127.014336 231.538681,126.694221 231.178879,126.374115 
	C225.755585,127.983452 220.332291,129.592789 214.427261,131.345078 
	C215.466721,132.551010 216.050751,133.732208 216.510315,133.685623 
	C222.648438,133.063309 223.223129,137.848907 224.535355,141.835297 
	C226.247849,147.037750 227.873032,152.270172 229.452301,157.514832 
	C230.660599,161.527496 230.115402,165.122116 226.414017,167.670792 
	C219.263306,172.594589 212.189636,170.539337 209.254166,162.464706 
	C206.987442,156.229614 205.178116,149.829453 203.089081,143.527969 
	C202.225601,140.923325 201.801392,138.723343 205.263687,137.652298 
	C205.922455,137.448517 206.195190,135.996750 206.646042,135.120773 
	C205.659195,134.830124 204.549240,134.090073 203.705307,134.321213 
	C197.895782,135.912460 192.141846,137.706635 185.871262,139.584946 
	C186.995483,140.782562 187.774643,142.157486 188.275757,142.062683 
	C193.680557,141.040161 194.052963,145.082703 195.125000,148.538208 
	C196.254944,152.180481 197.202103,155.919373 198.753250,159.381180 
	C200.822113,163.998383 203.396683,168.388977 206.354477,173.313126 
M408.056396,152.016815 
	C409.434814,151.918198 410.813232,151.819565 413.662506,151.615723 
	C411.172058,149.441772 409.726746,148.180161 408.308014,146.941727 
	C411.255371,137.950882 412.437134,137.235245 424.593323,139.186829 
	C429.782745,140.019989 428.505096,145.028671 430.045197,147.930511 
	C428.119446,148.988129 426.821655,149.700867 425.523895,150.413605 
	C426.226898,151.118820 426.911652,152.413162 427.635742,152.435547 
	C433.162170,152.606430 438.696259,152.529236 444.112000,152.529236 
	C441.717438,148.460678 439.021271,144.667511 437.131531,140.507950 
	C432.947845,131.299072 429.226654,121.881004 425.166595,112.614082 
	C424.525146,111.149994 423.099731,110.029358 422.036774,108.749908 
	C420.930603,110.014709 419.512848,111.119896 418.769714,112.570648 
	C414.457581,120.988960 410.374878,129.524765 406.067108,137.945389 
	C403.939270,142.104767 402.740845,147.073273 397.468903,148.852661 
	C397.123352,148.969315 397.185089,150.292603 396.899872,151.994553 
	C400.637024,151.994553 403.903564,151.994553 408.056396,152.016815 
M254.378693,162.286575 
	C267.136841,168.876083 284.579926,161.065308 286.971283,149.926559 
	C284.536041,151.074036 282.897461,151.779099 281.320526,152.602295 
	C277.306549,154.697678 273.502930,158.109619 269.286072,158.719513 
	C259.384583,160.151611 252.129059,151.643478 251.908173,139.636139 
	C251.781891,132.771927 255.105103,127.385017 260.694702,125.393196 
	C266.788696,123.221626 271.669037,124.939156 276.440155,130.644455 
	C277.436768,131.836212 279.068787,132.496628 280.407990,133.401917 
	C280.800690,133.015900 281.193420,132.629898 281.586121,132.243896 
	C280.266541,127.212250 278.946960,122.180618 277.848572,117.992371 
	C273.577759,118.655937 269.890625,119.622185 266.178101,119.732285 
	C254.788422,120.070076 245.964691,125.877907 243.069061,135.358215 
	C240.032745,145.299088 244.133514,155.559799 254.378693,162.286575 
M516.903320,125.413338 
	C520.703735,126.112854 523.339966,127.785591 523.382935,132.218353 
	C523.392029,133.160858 524.696960,134.090790 525.404907,135.026520 
	C526.238098,134.049515 527.557068,133.183533 527.810669,132.074066 
	C528.493652,129.085709 528.722168,125.993462 529.167786,122.668297 
	C516.132568,120.289772 503.647400,118.011612 490.926483,115.690430 
	C489.856506,120.111366 488.936768,123.911560 487.746490,128.829575 
	C490.003021,127.873878 492.106628,127.662430 492.586029,126.668007 
	C495.382538,120.866905 499.668091,121.929657 504.598602,123.574455 
	C502.580902,133.474823 500.739777,143.253967 498.447418,152.926132 
	C498.116699,154.321472 495.633514,155.226181 494.114746,156.313736 
	C493.057159,157.071030 491.945465,157.752731 490.857910,158.468216 
	C491.126526,158.874481 491.395142,159.280762 491.663757,159.687027 
	C498.300934,160.875961 504.938141,162.064911 513.180725,163.541428 
	C511.603638,161.340836 511.092896,159.798233 510.168793,159.488342 
	C506.893219,158.389999 507.029144,156.335037 507.640350,153.578598 
	C509.508423,145.154373 511.210327,136.692184 512.871765,128.224136 
	C513.251404,126.289223 513.388000,124.461685 516.903320,125.413338 
M471.983307,115.540741 
	C471.439514,114.870682 470.963379,113.692055 470.341461,113.609322 
	C464.172546,112.788704 457.979553,112.149345 451.091705,111.380402 
	C451.803802,113.058525 452.036835,114.559280 452.546112,114.659760 
	C457.279114,115.593552 456.263733,119.078812 455.901459,122.100822 
	C454.952179,130.019302 453.817566,137.915390 452.796478,145.825516 
	C452.454651,148.473282 451.832764,150.642014 448.487274,150.860886 
	C447.517212,150.924362 446.623352,152.152359 445.694580,152.846512 
	C445.848267,153.227646 446.001984,153.608780 446.155670,153.989914 
	C458.318848,155.392303 470.481995,156.794693 482.899628,158.226410 
	C484.699585,154.111542 486.403107,150.217056 488.512146,145.395554 
	C486.265411,145.997589 484.331146,145.912460 483.690338,146.781296 
	C477.507812,155.164139 469.512177,151.424408 461.331390,150.843018 
	C462.542389,141.699951 464.020966,133.183350 464.672455,124.603935 
	C465.050262,119.629135 466.252777,116.382301 471.983307,115.540741 
M327.475952,150.975723 
	C326.284546,149.508438 324.299713,148.171143 324.034454,146.552124 
	C322.637146,138.022781 321.798492,129.403305 320.492218,120.856926 
	C320.035187,117.866699 320.513672,116.068871 323.675018,115.307625 
	C324.536377,115.100212 325.195099,114.051353 325.946838,113.388657 
	C325.068237,112.901062 324.146942,111.929634 323.317810,112.002792 
	C316.961395,112.563583 310.622864,113.327499 303.240417,114.143013 
	C304.851013,115.654678 305.676270,117.060638 306.408325,117.013687 
	C311.089874,116.713440 311.330627,120.038391 311.746338,123.199791 
	C312.678558,130.289642 313.346191,137.419693 314.481049,144.475555 
	C315.225311,149.102982 315.906677,153.262680 309.297821,153.470459 
	C310.787140,156.876816 323.210480,156.628708 331.624420,153.115646 
	C330.274109,152.252975 329.283173,151.619888 327.475952,150.975723 
z"/>
<path fill="#FFFCFC" opacity="1.000000" stroke="none" 
	d="
M611.187622,587.314331 
	C593.798828,652.606873 559.735962,707.460205 511.598083,753.884766 
	C476.313965,787.912842 436.062317,814.902710 392.754486,837.514404 
	C391.048157,838.405212 388.115875,838.568970 386.464691,837.708862 
	C338.018311,812.471375 293.469482,781.836792 255.436035,742.288147 
	C207.274551,692.207947 175.665710,633.369934 162.008469,565.112427 
	C153.293701,521.556946 149.222427,477.479004 148.918396,433.121246 
	C148.442123,363.633972 148.595795,294.142334 148.494278,224.652527 
	C148.492126,223.182312 148.630981,221.711899 148.713516,220.051437 
	C309.097473,220.051437 469.185760,220.051437 629.583862,220.051437 
	C629.677368,221.708969 629.829773,223.161774 629.831238,224.614746 
	C629.897278,290.442078 630.390198,356.272888 629.868469,422.095673 
	C629.433716,476.954498 625.008301,531.492493 611.868286,585.005188 
	C611.709778,585.650696 611.478638,586.278320 611.187622,587.314331 
M570.500000,239.005264 
	C436.399750,239.005264 302.299530,239.005264 168.022110,239.005264 
	C167.940460,240.336685 167.848190,241.139984 167.848083,241.943283 
	C167.839645,300.423401 167.811615,358.903534 167.845749,417.383636 
	C167.870865,460.408478 170.982391,503.184692 177.941177,545.679199 
	C186.550476,598.252563 205.451996,646.572205 236.782791,689.837402 
	C276.297119,744.403320 328.188934,784.282288 386.890686,816.008789 
	C388.365784,816.805969 391.113312,816.539001 392.680664,815.687866 
	C437.595520,791.299072 478.740875,761.878357 513.604614,724.207458 
	C551.221313,683.561951 578.154846,636.877502 592.303528,583.169983 
	C606.098755,530.803894 610.017456,477.181946 610.661255,423.346375 
	C611.372620,363.859894 610.824219,304.358307 610.824463,244.863312 
	C610.824524,243.074356 610.824463,241.285400 610.824463,239.005264 
	C597.402100,239.005264 584.451050,239.005264 570.500000,239.005264 
z"/>
<path fill="#FEF6F6" opacity="1.000000" stroke="none" 
	d="
M571.120239,175.696732 
	C571.572144,174.832703 572.122437,173.906769 572.432739,173.981216 
	C578.362000,175.403824 579.650391,171.193466 581.263428,167.052383 
	C584.390076,159.025955 587.715271,151.076904 590.732056,143.652374 
	C589.079956,141.269775 587.791992,139.412323 585.921387,136.714691 
	C587.833801,136.901627 588.183289,136.875458 588.492554,136.974701 
	C600.792969,140.921570 600.811157,140.921570 601.827087,153.714874 
	C602.313782,159.844299 602.713013,165.980637 603.168396,172.112625 
	C603.176208,172.217422 603.394287,172.306595 604.004333,172.797272 
	C610.149658,166.985077 616.602661,161.332489 622.485535,155.138336 
	C625.692993,151.761185 628.541443,150.691132 632.738403,152.905533 
	C635.201965,154.205353 637.967834,154.932205 641.715088,156.335114 
	C640.079224,157.483826 638.875793,158.901138 638.240295,158.680756 
	C634.552429,157.401978 633.540222,159.762070 632.483948,162.362366 
	C629.423401,169.896896 626.323792,177.415512 623.245422,184.942810 
	C622.112671,187.712692 620.435242,190.507614 624.539429,192.521240 
	C625.069885,192.781525 624.851318,194.568451 625.045288,196.200043 
	C618.942383,194.008270 613.350525,192.069031 607.832336,189.938919 
	C607.062866,189.641891 606.655884,188.405807 606.081116,187.604431 
	C606.999878,187.262695 607.907593,186.886490 608.839966,186.587250 
	C610.256287,186.132675 612.557495,186.137436 612.976196,185.242325 
	C615.886597,179.020706 618.407715,172.616989 621.053650,166.271652 
	C620.629211,165.970490 620.204773,165.669312 619.780334,165.368134 
	C612.220276,172.338135 604.660217,179.308136 597.100159,186.278122 
	C596.557007,186.195023 596.013855,186.111923 595.470703,186.028839 
	C594.578186,175.668274 593.685608,165.307724 592.793091,154.947174 
	C592.558228,154.862610 592.323425,154.778046 592.088562,154.693466 
	C589.558167,161.069519 586.923340,167.407974 584.601868,173.859192 
	C584.222168,174.914444 585.077148,176.532028 585.627869,177.771301 
	C586.192749,179.042297 587.084595,180.167969 587.833313,181.357239 
	C587.488220,181.780319 587.143066,182.203415 586.797974,182.626495 
	C581.567627,180.451187 576.337219,178.275864 571.120239,175.696732 
M620.000000,165.500000 
	C620.200012,165.633331 620.399963,165.766663 620.599976,165.899994 
	C620.566650,165.599991 620.533325,165.300003 620.000000,165.500000 
z"/>
<path fill="#FEF7F6" opacity="1.000000" stroke="none" 
	d="
M145.748108,162.472046 
	C144.135727,161.124176 142.714523,160.029129 141.161057,159.174545 
	C140.032089,158.553497 138.728226,158.250366 137.536987,157.164078 
	C148.159317,153.181488 158.034012,147.422287 169.710342,147.816605 
	C179.453522,148.145660 186.342728,153.671021 189.190720,163.458618 
	C191.792053,172.398560 189.007553,181.184769 180.519241,185.770111 
	C172.121231,190.306702 162.957260,193.425354 154.129257,197.165970 
	C153.752045,196.854401 153.374832,196.542847 152.997620,196.231293 
	C153.305283,195.116043 153.295685,193.312943 153.973541,193.000320 
	C157.608673,191.323700 156.417374,188.970291 155.370102,186.406830 
	C152.166077,178.564163 149.039398,170.689865 145.748108,162.472046 
M173.082840,156.155304 
	C166.448257,152.096863 159.877548,153.173615 152.863144,156.157944 
	C157.171951,166.719757 161.327774,176.906555 165.445648,187.000336 
	C176.877838,184.501953 183.076767,177.416031 180.657135,168.869751 
	C179.413666,164.477814 176.083252,160.676743 173.082840,156.155304 
z"/>
<path fill="#FDF3F2" opacity="1.000000" stroke="none" 
	d="
M337.845123,133.483978 
	C337.590759,130.363174 337.288239,127.713631 337.161591,125.055695 
	C336.937531,120.355011 337.969269,115.069153 331.114990,113.882339 
	C330.569305,113.787865 330.266998,112.287941 329.730957,111.195221 
	C333.570984,110.959999 337.060272,110.479179 340.516235,110.654953 
	C342.083221,110.734642 343.887665,111.807076 345.063782,112.960167 
	C351.129669,118.907356 357.016479,125.036903 362.991333,131.077545 
	C364.230347,132.330231 365.577667,133.475784 367.466095,134.373642 
	C365.131287,126.082756 371.594177,115.377502 358.889740,110.192802 
	C359.280060,109.877792 359.670349,109.562775 360.060638,109.247765 
	C365.708008,108.825600 371.355347,108.403427 378.349609,107.880569 
	C377.081787,109.796272 376.571259,111.485847 375.748352,111.654892 
	C371.835815,112.458641 371.830109,115.228951 372.038269,118.164749 
	C372.825897,129.274033 373.657745,140.380188 374.596161,153.164948 
	C372.000305,151.419174 370.240234,150.573349 368.908386,149.284897 
	C360.327728,140.983902 351.840698,132.586136 342.812164,124.331696 
	C345.112244,133.715744 338.873291,145.198151 352.097229,152.619446 
	C344.724548,153.197906 339.163177,153.634247 332.574738,154.151169 
	C333.264923,152.502762 333.624817,150.502457 334.204865,150.436447 
	C339.293457,149.857315 338.481079,146.191025 338.383942,142.923782 
	C338.294922,139.930603 338.051544,136.942047 337.845123,133.483978 
z"/>
<path fill="#FDF5F5" opacity="1.000000" stroke="none" 
	d="
M548.656738,167.014923 
	C556.125549,168.322678 559.581055,166.521576 561.704529,159.936264 
	C563.691162,153.775391 565.276611,147.485474 567.056335,141.257416 
	C567.775940,138.739243 568.263184,136.466354 565.199707,134.876083 
	C564.320984,134.419937 564.130310,132.638306 563.282166,130.671127 
	C569.667725,132.282471 574.955750,133.616852 581.407227,135.244827 
	C579.916321,136.565643 578.956909,138.068314 578.209045,137.969528 
	C574.126221,137.430252 573.010864,139.994690 572.139771,143.083618 
	C570.516785,148.838547 568.924927,154.604050 567.178406,160.321884 
	C565.383850,166.197052 562.293396,171.115356 555.647034,172.050522 
	C547.898743,173.140717 540.632446,171.680847 535.075684,165.713547 
	C531.757385,162.150116 531.441406,157.578171 532.633423,153.019913 
	C534.230347,146.912979 536.050903,140.864594 537.770325,134.789612 
	C538.634827,131.735138 539.777100,128.653061 535.500610,126.988312 
	C535.004028,126.794998 535.016418,125.294121 534.572205,123.516708 
	C541.734558,125.272926 548.227112,126.864899 554.719666,128.456863 
	C554.879517,128.866425 555.039429,129.275970 555.199280,129.685532 
	C554.122070,130.341110 552.956787,131.660797 551.983643,131.531693 
	C548.639038,131.087982 547.613831,132.857559 546.895386,135.590149 
	C545.248291,141.855087 543.364929,148.057770 541.708313,154.320328 
	C539.810913,161.492950 541.236633,164.142319 548.656738,167.014923 
z"/>
<path fill="#FEF6F5" opacity="1.000000" stroke="none" 
	d="
M206.054260,173.095016 
	C203.396683,168.388977 200.822113,163.998383 198.753250,159.381180 
	C197.202103,155.919373 196.254944,152.180481 195.125000,148.538208 
	C194.052963,145.082703 193.680557,141.040161 188.275757,142.062683 
	C187.774643,142.157486 186.995483,140.782562 185.871262,139.584946 
	C192.141846,137.706635 197.895782,135.912460 203.705307,134.321213 
	C204.549240,134.090073 205.659195,134.830124 206.646042,135.120773 
	C206.195190,135.996750 205.922455,137.448517 205.263687,137.652298 
	C201.801392,138.723343 202.225601,140.923325 203.089081,143.527969 
	C205.178116,149.829453 206.987442,156.229614 209.254166,162.464706 
	C212.189636,170.539337 219.263306,172.594589 226.414017,167.670792 
	C230.115402,165.122116 230.660599,161.527496 229.452301,157.514832 
	C227.873032,152.270172 226.247849,147.037750 224.535355,141.835297 
	C223.223129,137.848907 222.648438,133.063309 216.510315,133.685623 
	C216.050751,133.732208 215.466721,132.551010 214.427261,131.345078 
	C220.332291,129.592789 225.755585,127.983452 231.178879,126.374115 
	C231.538681,126.694221 231.898499,127.014336 232.258301,127.334442 
	C231.640732,128.425934 230.894302,129.466141 230.434784,130.620544 
	C229.680328,132.515884 228.233505,134.689789 228.628143,136.385651 
	C229.865326,141.701965 231.828857,146.848984 233.505508,152.063354 
	C235.739655,159.011398 236.873016,165.785080 230.168625,171.154755 
	C223.424332,176.556381 213.672577,177.419189 206.054260,173.095016 
z"/>
<path fill="#FDF6F5" opacity="1.000000" stroke="none" 
	d="
M407.613281,152.005676 
	C403.903564,151.994553 400.637024,151.994553 396.899872,151.994553 
	C397.185089,150.292603 397.123352,148.969315 397.468903,148.852661 
	C402.740845,147.073273 403.939270,142.104767 406.067108,137.945389 
	C410.374878,129.524765 414.457581,120.988960 418.769714,112.570648 
	C419.512848,111.119896 420.930603,110.014709 422.036743,108.749924 
	C423.099731,110.029358 424.525146,111.149994 425.166595,112.614082 
	C429.226654,121.881004 432.947845,131.299072 437.131531,140.507950 
	C439.021271,144.667511 441.717438,148.460678 444.112000,152.529236 
	C438.696259,152.529236 433.162170,152.606430 427.635742,152.435547 
	C426.911652,152.413162 426.226898,151.118820 425.523895,150.413605 
	C426.821655,149.700867 428.119446,148.988129 430.045197,147.930511 
	C428.505096,145.028671 429.782745,140.019989 424.593323,139.186829 
	C412.437134,137.235245 411.255371,137.950882 408.308014,146.941727 
	C409.726746,148.180161 411.172058,149.441772 413.662506,151.615723 
	C410.813232,151.819565 409.434814,151.918198 407.613281,152.005676 
M419.639526,122.815903 
	C417.795135,126.383522 415.950745,129.951141 413.919159,133.880798 
	C418.012268,133.880798 421.250366,133.880798 424.995911,133.880798 
	C423.344330,129.960831 421.871826,126.465935 419.639526,122.815903 
z"/>
<path fill="#FDF5F5" opacity="1.000000" stroke="none" 
	d="
M254.040344,162.124969 
	C244.133514,155.559799 240.032745,145.299088 243.069061,135.358215 
	C245.964691,125.877907 254.788422,120.070076 266.178101,119.732285 
	C269.890625,119.622185 273.577759,118.655937 277.848572,117.992371 
	C278.946960,122.180618 280.266541,127.212250 281.586121,132.243896 
	C281.193420,132.629898 280.800690,133.015900 280.407990,133.401917 
	C279.068787,132.496628 277.436768,131.836212 276.440155,130.644455 
	C271.669037,124.939156 266.788696,123.221626 260.694702,125.393196 
	C255.105103,127.385017 251.781891,132.771927 251.908173,139.636139 
	C252.129059,151.643478 259.384583,160.151611 269.286072,158.719513 
	C273.502930,158.109619 277.306549,154.697678 281.320526,152.602295 
	C282.897461,151.779099 284.536041,151.074036 286.971283,149.926559 
	C284.579926,161.065308 267.136841,168.876083 254.040344,162.124969 
z"/>
<path fill="#FDF5F5" opacity="1.000000" stroke="none" 
	d="
M516.506958,125.310974 
	C513.388000,124.461685 513.251404,126.289223 512.871765,128.224136 
	C511.210327,136.692184 509.508423,145.154373 507.640350,153.578598 
	C507.029144,156.335037 506.893219,158.389999 510.168793,159.488342 
	C511.092896,159.798233 511.603638,161.340836 513.180725,163.541428 
	C504.938141,162.064911 498.300934,160.875961 491.663757,159.687027 
	C491.395142,159.280762 491.126526,158.874481 490.857910,158.468216 
	C491.945465,157.752731 493.057159,157.071030 494.114746,156.313736 
	C495.633514,155.226181 498.116699,154.321472 498.447418,152.926132 
	C500.739777,143.253967 502.580902,133.474823 504.598602,123.574455 
	C499.668091,121.929657 495.382538,120.866905 492.586029,126.668007 
	C492.106628,127.662430 490.003021,127.873878 487.746490,128.829575 
	C488.936768,123.911560 489.856506,120.111366 490.926483,115.690430 
	C503.647400,118.011612 516.132568,120.289772 529.167786,122.668297 
	C528.722168,125.993462 528.493652,129.085709 527.810669,132.074066 
	C527.557068,133.183533 526.238098,134.049515 525.404907,135.026520 
	C524.696960,134.090790 523.392029,133.160858 523.382935,132.218353 
	C523.339966,127.785591 520.703735,126.112854 516.506958,125.310974 
z"/>
<path fill="#FEF6F6" opacity="1.000000" stroke="none" 
	d="
M471.894836,115.953461 
	C466.252777,116.382301 465.050262,119.629135 464.672455,124.603935 
	C464.020966,133.183350 462.542389,141.699951 461.331390,150.843018 
	C469.512177,151.424408 477.507812,155.164139 483.690338,146.781296 
	C484.331146,145.912460 486.265411,145.997589 488.512146,145.395554 
	C486.403107,150.217056 484.699585,154.111542 482.899628,158.226410 
	C470.481995,156.794693 458.318848,155.392303 446.155670,153.989914 
	C446.001984,153.608780 445.848267,153.227646 445.694580,152.846512 
	C446.623352,152.152359 447.517212,150.924362 448.487274,150.860886 
	C451.832764,150.642014 452.454651,148.473282 452.796478,145.825516 
	C453.817566,137.915390 454.952179,130.019302 455.901459,122.100822 
	C456.263733,119.078812 457.279114,115.593552 452.546112,114.659760 
	C452.036835,114.559280 451.803802,113.058525 451.091705,111.380402 
	C457.979553,112.149345 464.172546,112.788704 470.341461,113.609322 
	C470.963379,113.692055 471.439514,114.870682 471.894836,115.953461 
z"/>
<path fill="#FEF6F6" opacity="1.000000" stroke="none" 
	d="
M327.884094,150.981262 
	C329.283173,151.619888 330.274109,152.252975 331.624420,153.115646 
	C323.210480,156.628708 310.787140,156.876816 309.297821,153.470459 
	C315.906677,153.262680 315.225311,149.102982 314.481049,144.475555 
	C313.346191,137.419693 312.678558,130.289642 311.746338,123.199791 
	C311.330627,120.038391 311.089874,116.713440 306.408325,117.013687 
	C305.676270,117.060638 304.851013,115.654678 303.240417,114.143013 
	C310.622864,113.327499 316.961395,112.563583 323.317810,112.002792 
	C324.146942,111.929634 325.068237,112.901062 325.946838,113.388657 
	C325.195099,114.051353 324.536377,115.100212 323.675018,115.307625 
	C320.513672,116.068871 320.035187,117.866699 320.492218,120.856926 
	C321.798492,129.403305 322.637146,138.022781 324.034454,146.552124 
	C324.299713,148.171143 326.284546,149.508438 327.884094,150.981262 
z"/>
<path fill="#E2211C" opacity="1.000000" stroke="none" 
	d="
M571.000000,239.005264 
	C584.451050,239.005264 597.402100,239.005264 610.824463,239.005264 
	C610.824463,241.285400 610.824524,243.074356 610.824463,244.863312 
	C610.824219,304.358307 611.372620,363.859894 610.661255,423.346375 
	C610.017456,477.181946 606.098755,530.803894 592.303528,583.169983 
	C578.154846,636.877502 551.221313,683.561951 513.604614,724.207458 
	C478.740875,761.878357 437.595520,791.299072 392.680664,815.687866 
	C391.113312,816.539001 388.365784,816.805969 386.890686,816.008789 
	C328.188934,784.282288 276.297119,744.403320 236.782791,689.837402 
	C205.451996,646.572205 186.550476,598.252563 177.941177,545.679199 
	C170.982391,503.184692 167.870865,460.408478 167.845749,417.383636 
	C167.811615,358.903534 167.839645,300.423401 167.848083,241.943283 
	C167.848190,241.139984 167.940460,240.336685 168.022110,239.005264 
	C302.299530,239.005264 436.399750,239.005264 571.000000,239.005264 
M274.202911,532.982117 
	C273.113617,528.128113 271.154816,523.287598 271.079010,518.417786 
	C270.651398,490.934204 270.667877,463.443573 270.567963,435.955200 
	C270.562561,434.466064 270.831970,432.970062 271.042542,431.487061 
	C271.768951,426.371002 274.365356,422.845398 279.624542,421.755432 
	C283.485199,420.955353 287.372711,420.284790 293.029022,419.221832 
	C291.004791,417.542755 289.974670,415.942047 288.933350,415.934723 
	C268.121643,415.788025 247.308640,415.825165 226.247101,415.825165 
	C226.247101,417.325531 226.247101,418.528442 226.247101,419.806366 
	C227.108780,419.941833 227.752457,420.057373 228.400146,420.142761 
	C244.559753,422.272186 246.810165,424.844788 246.813446,441.201782 
	C246.814178,444.867859 246.804581,448.533997 246.814941,452.200043 
	C246.874207,473.194580 246.469193,494.203796 247.126450,515.179688 
	C247.847427,538.189026 260.182800,554.085815 281.053986,559.841125 
	C297.281403,564.315796 313.742828,564.259827 329.916626,559.677551 
	C346.794250,554.895813 357.771851,543.867981 361.676758,526.518127 
	C362.840057,521.349365 363.692230,515.995483 363.757996,510.714905 
	C364.033966,488.556702 363.690216,466.389252 364.091919,444.234619 
	C364.434570,425.336212 367.551208,422.936462 382.725616,420.300018 
	C385.949554,419.739868 385.983856,418.363556 384.891052,415.985657 
	C367.223572,415.985657 349.760437,415.985657 332.357208,415.985657 
	C330.741791,419.405609 332.593140,419.872498 335.309875,420.366119 
	C349.656342,422.972656 352.734741,425.603699 353.030884,440.297516 
	C353.550934,466.098541 353.612000,491.942291 352.702698,517.727173 
	C352.078400,535.430054 343.044739,546.353882 327.801727,550.657349 
	C317.392273,553.596191 306.806000,553.895630 296.203186,551.243469 
	C286.220215,548.746338 278.870819,543.098083 274.202911,532.982117 
M528.499939,559.847351 
	C536.295776,559.847351 544.091553,559.847351 551.788696,559.847351 
	C553.428284,556.328979 551.873230,555.388855 548.998291,554.987305 
	C543.324036,554.194824 539.194397,551.163025 536.658142,545.972595 
	C535.198853,542.986023 533.540955,540.094421 532.134644,537.084290 
	C513.428894,497.047638 494.775146,456.986664 475.984467,416.989960 
	C475.220795,415.364380 473.219971,413.272491 471.820312,413.290802 
	C470.448212,413.308777 468.587646,415.508514 467.832153,417.158539 
	C457.801819,439.065521 448.018646,461.085693 437.989532,482.993256 
	C428.791534,503.085388 419.427368,523.102234 410.014252,543.094666 
	C407.054382,549.381104 402.608459,554.045715 395.270386,555.344971 
	C394.153503,555.542664 393.360809,557.571594 391.708069,559.643921 
	C408.361542,559.643921 423.308746,559.643921 438.328217,559.643921 
	C440.036835,554.648865 436.276825,555.380249 433.790131,555.089172 
	C424.015198,553.945129 420.951202,549.753479 424.188477,540.585144 
	C427.226715,531.980347 430.922974,523.600708 434.568970,515.226196 
	C435.051117,514.118774 436.941711,512.959900 438.188904,512.949951 
	C456.514587,512.804626 474.841949,512.822815 493.168274,512.921021 
	C494.232605,512.926697 495.883698,513.686646 496.262299,514.539307 
	C500.573059,524.247864 505.158905,533.876587 508.696747,543.871521 
	C511.168640,550.855042 508.843414,553.610474 501.573242,554.773132 
	C499.767426,555.061890 497.791779,554.813110 496.155731,555.466431 
	C494.927002,555.957031 494.117065,557.496399 493.120728,558.568848 
	C493.453339,558.994995 493.785980,559.421204 494.118622,559.847351 
	C505.245697,559.847351 516.372803,559.847351 528.499939,559.847351 
z"/>
<path fill="#E2211C" opacity="1.000000" stroke="none" 
	d="
M620.250000,165.250000 
	C620.533325,165.300003 620.566650,165.599991 620.599976,165.899994 
	C620.399963,165.766663 620.200012,165.633331 620.250000,165.250000 
z"/>
<path fill="#E2241F" opacity="1.000000" stroke="none" 
	d="
M173.389374,156.381989 
	C176.083252,160.676743 179.413666,164.477814 180.657135,168.869751 
	C183.076767,177.416031 176.877838,184.501953 165.445648,187.000336 
	C161.327774,176.906555 157.171951,166.719757 152.863144,156.157944 
	C159.877548,153.173615 166.448257,152.096863 173.389374,156.381989 
z"/>
<path fill="#E42D29" opacity="1.000000" stroke="none" 
	d="
M420.019440,122.893463 
	C421.871826,126.465935 423.344330,129.960831 424.995911,133.880798 
	C421.250366,133.880798 418.012268,133.880798 413.919159,133.880798 
	C415.950745,129.951141 417.795135,126.383522 420.019440,122.893463 
z"/>
<path fill="#FEFAFA" opacity="1.000000" stroke="none" 
	d="
M274.374817,533.327637 
	C278.870819,543.098083 286.220215,548.746338 296.203186,551.243469 
	C306.806000,553.895630 317.392273,553.596191 327.801727,550.657349 
	C343.044739,546.353882 352.078400,535.430054 352.702698,517.727173 
	C353.612000,491.942291 353.550934,466.098541 353.030884,440.297516 
	C352.734741,425.603699 349.656342,422.972656 335.309875,420.366119 
	C332.593140,419.872498 330.741791,419.405609 332.357208,415.985657 
	C349.760437,415.985657 367.223572,415.985657 384.891052,415.985657 
	C385.983856,418.363556 385.949554,419.739868 382.725616,420.300018 
	C367.551208,422.936462 364.434570,425.336212 364.091919,444.234619 
	C363.690216,466.389252 364.033966,488.556702 363.757996,510.714905 
	C363.692230,515.995483 362.840057,521.349365 361.676758,526.518127 
	C357.771851,543.867981 346.794250,554.895813 329.916626,559.677551 
	C313.742828,564.259827 297.281403,564.315796 281.053986,559.841125 
	C260.182800,554.085815 247.847427,538.189026 247.126450,515.179688 
	C246.469193,494.203796 246.874207,473.194580 246.814941,452.200043 
	C246.804581,448.533997 246.814178,444.867859 246.813446,441.201782 
	C246.810165,424.844788 244.559753,422.272186 228.400146,420.142761 
	C227.752457,420.057373 227.108780,419.941833 226.247101,419.806366 
	C226.247101,418.528442 226.247101,417.325531 226.247101,415.825165 
	C247.308640,415.825165 268.121643,415.788025 288.933350,415.934723 
	C289.974670,415.942047 291.004791,417.542755 293.029022,419.221832 
	C287.372711,420.284790 283.485199,420.955353 279.624542,421.755432 
	C274.365356,422.845398 271.768951,426.371002 271.042542,431.487061 
	C270.831970,432.970062 270.562561,434.466064 270.567963,435.955200 
	C270.667877,463.443573 270.651398,490.934204 271.079010,518.417786 
	C271.154816,523.287598 273.113617,528.128113 274.374817,533.327637 
z"/>
<path fill="#FEFAFA" opacity="1.000000" stroke="none" 
	d="
M527.999878,559.847351 
	C516.372803,559.847351 505.245697,559.847351 494.118622,559.847351 
	C493.785980,559.421204 493.453339,558.994995 493.120728,558.568848 
	C494.117065,557.496399 494.927002,555.957031 496.155731,555.466431 
	C497.791779,554.813110 499.767426,555.061890 501.573242,554.773132 
	C508.843414,553.610474 511.168640,550.855042 508.696747,543.871521 
	C505.158905,533.876587 500.573059,524.247864 496.262299,514.539307 
	C495.883698,513.686646 494.232605,512.926697 493.168274,512.921021 
	C474.841949,512.822815 456.514587,512.804626 438.188904,512.949951 
	C436.941711,512.959900 435.051117,514.118774 434.568970,515.226196 
	C430.922974,523.600708 427.226715,531.980347 424.188477,540.585144 
	C420.951202,549.753479 424.015198,553.945129 433.790131,555.089172 
	C436.276825,555.380249 440.036835,554.648865 438.328217,559.643921 
	C423.308746,559.643921 408.361542,559.643921 391.708069,559.643921 
	C393.360809,557.571594 394.153503,555.542664 395.270386,555.344971 
	C402.608459,554.045715 407.054382,549.381104 410.014252,543.094666 
	C419.427368,523.102234 428.791534,503.085388 437.989532,482.993256 
	C448.018646,461.085693 457.801819,439.065521 467.832153,417.158539 
	C468.587646,415.508514 470.448212,413.308777 471.820312,413.290802 
	C473.219971,413.272491 475.220795,415.364380 475.984467,416.989960 
	C494.775146,456.986664 513.428894,497.047638 532.134644,537.084290 
	C533.540955,540.094421 535.198853,542.986023 536.658142,545.972595 
	C539.194397,551.163025 543.324036,554.194824 548.998291,554.987305 
	C551.873230,555.388855 553.428284,556.328979 551.788696,559.847351 
	C544.091553,559.847351 536.295776,559.847351 527.999878,559.847351 
M472.360809,459.141602 
	C470.264862,454.496704 468.168945,449.851807 465.738617,444.465881 
	C456.865662,464.632294 448.370850,483.939240 439.695129,503.657379 
	C457.462646,503.657379 474.498260,503.657379 492.243164,503.657379 
	C485.623199,488.773987 479.179565,474.287048 472.360809,459.141602 
z"/>
<path fill="#E22520" opacity="1.000000" stroke="none" 
	d="
M472.548370,459.470886 
	C479.179565,474.287048 485.623199,488.773987 492.243164,503.657379 
	C474.498260,503.657379 457.462646,503.657379 439.695129,503.657379 
	C448.370850,483.939240 456.865662,464.632294 465.738617,444.465881 
	C468.168945,449.851807 470.264862,454.496704 472.548370,459.470886 
z"/>
</svg>